
<svg width="231" height="31" fill="none" xmlns="http://www.w3.org/2000/svg"><path fill-rule="evenodd" clip-rule="evenodd" d="M36.161 14.315a5.783 5.783 0 011.705 4.115 5.782 5.782 0 01-1.705 4.115 5.783 5.783 0 01-4.115 1.705h-12.45V12.61h12.45c1.554 0 3.016.606 4.115 1.705zm-4.115 15.7c6.399 0 11.586-5.186 11.586-11.585 0-6.399-5.187-11.586-11.586-11.586H13.83v23.172h18.216zm69.541-13.888a7.185 7.185 0 012.295 1.546 7.189 7.189 0 011.547 2.295c.377.892.569 1.838.569 2.812 0 .974-.192 1.92-.569 2.812a7.183 7.183 0 01-1.547 2.295 7.184 7.184 0 01-2.295 1.546 7.174 7.174 0 01-2.812.57H79.093a2.87 2.87 0 110-5.74h19.683c.818 0 1.484-.665 1.484-1.483 0-.818-.666-1.483-1.484-1.483v.01H83.447c-.975 0-1.92-.192-2.814-.57a7.2 7.2 0 01-2.295-1.547 7.195 7.195 0 01-1.547-2.295 7.181 7.181 0 01-.569-2.813c0-.974.192-1.92.57-2.813a7.2 7.2 0 011.546-2.295 7.195 7.195 0 012.296-1.547 7.183 7.183 0 012.813-.57h18.169a2.87 2.87 0 010 5.74h-18.17c-.819 0-1.485.666-1.485 1.485 0 .82.666 1.485 1.486 1.485h15.328v-.009c.974 0 1.92.191 2.812.569zM74.774 6.845h-5.739v14.687L49.897 7.698A2.87 2.87 0 0045 9.728v20.288h5.739V15.329l19.138 13.833a2.867 2.867 0 003.127.622 2.87 2.87 0 001.771-2.651V6.845zm78.751 2.24c-.645 0-1.141.247-1.518.753-.347.47-.523 1.077-.523 1.802 0 .745.172 1.356.512 1.816.367.497.867.739 1.529.739.661 0 1.161-.242 1.528-.74.34-.46.513-1.07.513-1.815 0-.725-.177-1.332-.525-1.803-.376-.505-.872-.751-1.516-.751zm3.238 5.933c-.84.918-1.929 1.383-3.238 1.383-1.301 0-2.386-.465-3.225-1.381-.824-.902-1.242-2.039-1.242-3.38 0-1.354.418-2.491 1.243-3.38.837-.915 1.922-1.38 3.224-1.38 1.289 0 2.371.473 3.213 1.406.831.908 1.254 2.037 1.254 3.354 0 1.337-.414 2.473-1.229 3.378zm-35.838 2.897c.221-.22.333-.521.333-.893v-1.688c0-.363-.117-.664-.345-.892-.209-.21-.497-.32-.832-.32h-.047V8.166c0-.371-.112-.672-.339-.899a1.189 1.189 0 00-.837-.314c-.331 0-.612.105-.844.32-.22.221-.332.522-.332.893v5.956h-3.323V8.166c0-.371-.112-.672-.34-.899a1.187 1.187 0 00-.837-.314c-.33 0-.612.105-.843.32-.221.221-.333.522-.333.893v6.874c0 .364.116.664.345.894.209.21.497.32.831.32h5.723v.768c0 .372.112.672.34.9.224.208.505.313.836.313.331 0 .613-.105.844-.32zm8.995-9.749c0-.372-.112-.672-.34-.899a1.186 1.186 0 00-.836-.314c-.389 0-.717.17-.976.505l-3.524 4.6V8.166c0-.372-.112-.672-.34-.899a1.185 1.185 0 00-.836-.314c-.331 0-.612.106-.844.32-.22.22-.333.521-.333.893v6.948c0 .372.112.672.34.9.225.208.506.313.837.313.389 0 .717-.17.975-.504l3.524-4.546v3.837c0 .372.112.672.34.9.225.208.506.313.837.313.33 0 .612-.105.843-.32.221-.221.333-.521.333-.893V8.166zm7.08 2.007v2.838l.018.004c.081.022.13.03.188.03.395 0 .72-.129.995-.393.28-.269.422-.622.422-1.048 0-.423-.14-.767-.426-1.053a1.37 1.37 0 00-.991-.401c-.052 0-.112.008-.173.017l-.024.003-.009.003zm-3.455.381a1.417 1.417 0 00-.423 1.05c0 .426.143.778.423 1.049.274.263.6.392.995.392a.896.896 0 00.205-.034l-.006-2.842-.017-.002c-.086-.01-.137-.017-.182-.017-.387 0-.713.132-.995.404zm1.004 4.658a3.785 3.785 0 01-.462.039 3.135 3.135 0 01-2.432-1.09c-.635-.687-.959-1.548-.959-2.557 0-1.007.314-1.871.934-2.57.644-.723 1.471-1.09 2.457-1.09.104 0 .263.012.473.039.047.003.096.007.145.014.03-.295.138-.538.324-.723.232-.215.513-.32.844-.32.331 0 .612.105.837.313.191.191.301.435.331.73.053-.007.106-.012.159-.015.196-.026.354-.038.459-.038.985 0 1.812.367 2.456 1.09.62.699.934 1.563.934 2.57 0 1.003-.319 1.864-.948 2.559-.643.721-1.465 1.088-2.442 1.088a5.523 5.523 0 01-.612-.06c-.014.336-.125.61-.331.816a1.19 1.19 0 01-.843.32 1.19 1.19 0 01-.837-.314c-.212-.211-.323-.486-.338-.822l-.149.02zm11.631-5.015c0 .314-.088.555-.276.744-.179.197-.416.293-.725.293h-.989V9.16h.989c.308 0 .546.093.729.286.185.195.272.434.272.752zm2.425.012c0-.936-.328-1.712-.976-2.307-.634-.58-1.446-.876-2.414-.876h-2.165c-.782 0-1.213.431-1.213 1.214v6.874c0 .371.112.671.34.9.224.208.506.313.836.313.331 0 .613-.105.844-.32.221-.222.333-.522.333-.893v-1.747h1.098c.942 0 1.703-.279 2.326-.85.658-.59.991-1.366.991-2.308zm12.633.267V9.159h.695c.223 0 .398.054.533.162.138.111.199.25.199.448 0 .235-.06.4-.188.52-.136.127-.309.187-.544.187h-.695zm0 3.645V12.61h1.037c.914 0 1.038.357 1.038.707 0 .257-.08.453-.243.589-.165.146-.377.216-.648.216h-1.184zm-1.116 2.133h2.52c.926 0 1.676-.253 2.227-.75.577-.51.87-1.238.87-2.164 0-.589-.203-1.113-.605-1.555a2.399 2.399 0 00-.891-.627c.514-.408.774-.984.774-1.72 0-.717-.255-1.31-.757-1.756-.475-.435-1.081-.655-1.801-.655h-2.349c-.349 0-.64.1-.874.302-.233.218-.351.512-.351.874v6.862c0 .35.126.653.371.88.235.205.527.309.866.309zm9.216-3.919h1.612l-.797-2.486-.815 2.486zm4.853 2.707a1.02 1.02 0 01-.313.996c-.208.192-.464.29-.763.29-.569 0-.974-.291-1.14-.818l-.309-.969h-3.023l-.309.959c-.167.532-.568.827-1.127.827-.299 0-.57-.103-.806-.308a1.038 1.038 0 01-.358-.807c0-.109.015-.22.047-.328l.04-.135 2.473-6.685c.301-.787.822-1.184 1.552-1.184.747 0 1.285.411 1.553 1.19l2.397 6.65c.038.088.07.207.086.322zm3.259-5.593c.165-.146.377-.217.648-.217h1.001v1.648h-1.001c-.273 0-.483-.073-.642-.224-.157-.147-.237-.351-.237-.606 0-.264.078-.466.231-.601zm4.002 5.665V8.24c0-.783-.427-1.213-1.201-1.213h-2.153c-2.162 0-3.305 1.045-3.305 3.023 0 .715.25 1.314.742 1.78.335.313.764.544 1.281.687l-1.77 1.895c-.206.221-.314.469-.314.715 0 .31.113.596.327.825.342.365.804.486 1.324.279.126-.058.308-.154.435-.316l2.281-2.764v1.963c0 .372.112.672.34.9.224.208.506.313.836.313.331 0 .613-.105.844-.32.221-.222.333-.522.333-.893zm11.021-7.656c.259-.335.587-.505.976-.505.331 0 .612.106.837.314.228.228.34.528.34.9v6.947c0 .37-.112.671-.333.892a1.193 1.193 0 01-.844.322c-.33 0-.612-.106-.836-.315-.228-.228-.34-.528-.34-.899v-3.837l-3.524 4.546c-.259.335-.587.505-.976.505-.33 0-.612-.106-.836-.315-.228-.228-.34-.528-.34-.899V8.166c0-.371.112-.671.333-.892.231-.215.513-.32.843-.32.331 0 .613.105.837.313.228.228.34.528.34.9v3.891l3.523-4.6zM116.434 26.96c0 .257-.08.454-.243.59-.165.145-.377.216-.648.216h-1.184v-1.512h1.037c.915 0 1.038.357 1.038.706zm1.456-2.175c-.575-.441-1.365-.665-2.347-.665h-1.184v-1.243h2.518c.348 0 .64-.124.839-.353.193-.21.288-.457.288-.75 0-.29-.091-.543-.277-.763-.21-.226-.496-.34-.85-.34h-3.646c-.349 0-.64.1-.874.302-.233.218-.351.512-.351.874v6.863c0 .35.126.652.371.88.235.205.527.308.866.308h2.52c.926 0 1.676-.253 2.227-.75.577-.51.87-1.238.87-2.163 0-.953-.325-1.692-.97-2.2zm9.234-3.867c.231-.215.513-.32.843-.32.332 0 .613.105.837.314.228.226.34.527.34.899v6.948c0 .37-.112.67-.333.892a1.192 1.192 0 01-.844.321c-.33 0-.612-.106-.836-.314-.228-.228-.34-.528-.34-.9V21.81c0-.372.112-.673.333-.893zm-3.244 5.981c0 .263-.084.475-.255.637-.153.152-.367.23-.636.23h-1.001V26.13h.854c.352 0 .614.076.8.233a.647.647 0 01.238.535zm1.461-2.195c-.575-.468-1.367-.706-2.352-.706h-1.001V21.81c0-.372-.112-.672-.34-.899a1.19 1.19 0 00-.837-.314c-.33 0-.612.106-.843.321-.221.22-.333.52-.333.892v6.9c0 .35.125.652.371.88.236.205.527.308.866.308h2.337c.924 0 1.674-.262 2.231-.778.574-.535.865-1.273.865-2.197 0-.955-.324-1.702-.964-2.219zm9.994-4.033c.327 0 .588.111.801.34.192.207.289.464.289.763 0 .294-.084.537-.257.742-.19.237-.472.36-.833.36h-1.075v5.882c0 .372-.112.672-.333.893a1.19 1.19 0 01-.843.321c-.331 0-.613-.105-.837-.314-.228-.228-.34-.528-.34-.9v-5.881h-1.074c-.362 0-.644-.124-.838-.366a1.095 1.095 0 01-.253-.737c0-.3.097-.556.289-.763.213-.229.475-.34.802-.34h4.502zm3.959 2.811c.376-.506.872-.752 1.517-.752.644 0 1.14.246 1.516.752.348.47.524 1.077.524 1.803 0 .745-.172 1.355-.512 1.815-.367.497-.867.739-1.528.739s-1.162-.242-1.529-.739c-.34-.46-.512-1.071-.512-1.815 0-.726.176-1.332.524-1.803zm1.517-2.958c-1.302 0-2.387.465-3.224 1.38-.825.89-1.243 2.027-1.243 3.38 0 1.342.418 2.479 1.242 3.38.839.916 1.923 1.382 3.225 1.382 1.309 0 2.398-.466 3.238-1.383.815-.906 1.229-2.042 1.229-3.378 0-1.318-.423-2.447-1.254-3.354-.842-.933-1.924-1.407-3.213-1.407zm7.713 2.28v1.316h.695c.235 0 .408-.06.545-.187.127-.119.187-.284.187-.52 0-.198-.062-.336-.199-.447-.135-.11-.31-.162-.533-.162h-.695zm1.833 4.745c.162-.136.242-.332.242-.588 0-.35-.124-.708-1.038-.708h-1.037v1.513h1.184c.271 0 .483-.07.649-.217zm1.946-4.466c0 .735-.26 1.312-.774 1.72.337.134.635.344.891.626.402.443.605.967.605 1.555 0 .926-.293 1.654-.87 2.164-.551.497-1.301.75-2.227.75h-2.52c-.339 0-.63-.103-.866-.307a1.168 1.168 0 01-.371-.882v-6.862c0-.362.118-.657.351-.874.234-.203.526-.302.874-.302h2.349c.72 0 1.326.22 1.801.655.502.447.757 1.04.757 1.757zm5.933 2.896h-1.612l.815-2.486.797 2.486zm3.155 2.386l-2.396-6.651c-.269-.778-.806-1.19-1.554-1.19-.73 0-1.251.398-1.552 1.184l-2.473 6.686-.04.135a1.16 1.16 0 00-.047.327c0 .325.124.604.358.808.236.204.507.308.806.308.559 0 .96-.295 1.128-.828l.308-.959h3.023l.31.97c.165.527.57.817 1.139.817.299 0 .556-.097.763-.29a1.021 1.021 0 00.313-.996 1.34 1.34 0 00-.086-.321zm3.993-5.488c-.271 0-.483.07-.648.216-.153.135-.23.337-.23.601 0 .255.079.46.236.607.159.15.369.223.642.223h1.001v-1.647h-1.001zm0-2.206h2.153c.774 0 1.201.43 1.201 1.213v6.874c0 .371-.112.672-.332.893a1.195 1.195 0 01-.844.32c-.331 0-.613-.105-.837-.313-.228-.228-.34-.528-.34-.9v-1.963l-2.281 2.765a1.15 1.15 0 01-.436.315c-.517.207-.981.086-1.323-.279a1.19 1.19 0 01-.327-.825c0-.246.109-.494.314-.714l1.77-1.896c-.517-.143-.946-.374-1.28-.687-.493-.466-.743-1.064-.743-1.78 0-1.978 1.143-3.023 3.305-3.023zm13.394 0h-4.501c-.328 0-.59.111-.802.34a1.086 1.086 0 00-.289.763c0 .294.083.537.252.737.195.242.477.366.839.366h1.074v5.881c0 .371.112.672.34.9.224.208.506.314.837.314.33 0 .612-.106.844-.321.22-.221.332-.522.332-.893v-5.881h1.074c.362 0 .644-.124.834-.361.173-.205.257-.448.257-.742 0-.299-.097-.556-.289-.763a1.039 1.039 0 00-.802-.34zm4.023 7.021h2.004c.355 0 .641.114.85.34.187.22.277.474.277.763 0 .294-.094.54-.288.75-.198.229-.49.353-.839.353h-3.156c-.332 0-.618-.11-.85-.326a1.117 1.117 0 01-.351-.85v-6.728c0-.853.43-1.323 1.213-1.323h3.034c.354 0 .64.114.85.339.187.22.277.474.277.764 0 .294-.094.54-.289.75-.2.232-.484.353-.838.353h-1.894v1.267h1.747c.358 0 .656.118.862.34.193.209.29.466.29.764 0 .294-.095.54-.289.75-.219.235-.509.353-.863.353h-1.747v1.341zm11.256.386l-2.308-3.1 1.863-2.53a1.12 1.12 0 00.251-.699c0-.354-.12-.638-.352-.838a1.188 1.188 0 00-.836-.314c-.409 0-.758.196-1.007.563l-1.305 1.852-1.303-1.85c-.252-.369-.601-.565-1.009-.565-.331 0-.612.106-.83.308-.238.206-.358.49-.358.844 0 .248.086.49.246.692l1.868 2.537-2.311 3.104c-.083.117-.13.23-.165.324-.059.15-.091.305-.091.45 0 .338.12.614.352.814.215.2.497.302.836.302.391 0 .726-.177.969-.512l1.796-2.497 1.797 2.498c.242.334.577.511.968.511.336 0 .612-.097.848-.302.226-.209.34-.483.34-.814 0-.127-.024-.268-.078-.445a1.4 1.4 0 00-.181-.333zm6.949-7.16c.231-.215.512-.32.843-.32.331 0 .612.105.837.313.227.227.34.528.34.9v6.948c0 .37-.112.671-.333.892a1.192 1.192 0 01-.844.321c-.331 0-.612-.106-.837-.314-.227-.228-.339-.528-.339-.9V26.35h-3.323v2.407c0 .372-.112.672-.333.893a1.192 1.192 0 01-.844.321c-.33 0-.612-.106-.836-.314-.228-.228-.34-.528-.34-.9V21.81c0-.372.112-.673.333-.893.231-.215.513-.32.843-.32.331 0 .612.105.837.313.228.227.34.528.34.9v2.334h3.323V21.81c0-.372.112-.673.333-.893zm10.156-.32c-.389 0-.717.17-.976.505l-3.523 4.6V21.81c0-.372-.112-.672-.34-.9a1.188 1.188 0 00-.837-.314c-.33 0-.612.106-.843.321-.221.221-.333.521-.333.893v6.948c0 .37.112.67.34.899.224.208.506.314.836.314.389 0 .718-.17.976-.504l3.524-4.547v3.837c0 .371.112.672.34.9.224.208.506.314.836.314.331 0 .612-.106.845-.321.22-.221.332-.522.332-.892V21.81c0-.372-.112-.672-.34-.9a1.19 1.19 0 00-.837-.314zm8.763 2.3l-2.132 2.098 2.65 2.764c.388.402.585.776.585 1.109 0 .345-.131.627-.389.837a1.295 1.295 0 01-.824.266c-.335 0-.711-.222-1.118-.658l-2.721-2.94v2.458c0 .315-.112.586-.333.807a1.15 1.15 0 01-.844.333c-.33 0-.611-.105-.836-.314-.226-.21-.34-.487-.34-.826v-7.07c0-.323.112-.599.333-.82.212-.226.498-.344.843-.344.331 0 .613.105.837.314.226.208.34.494.34.85v1.988l2.562-2.728c.085-.098.193-.188.333-.275.483-.265.994-.18 1.365.165.242.225.364.502.364.825 0 .332-.215.701-.675 1.162zm6.429 3.082h-1.612l.815-2.487.797 2.486zm3.242 2.706a1.408 1.408 0 00-.086-.321l-2.397-6.651c-.269-.778-.806-1.19-1.554-1.19-.73 0-1.251.398-1.552 1.184l-2.473 6.686-.04.135c-.031.108-.047.219-.047.327 0 .325.124.604.359.808.235.204.507.308.805.308.56 0 .96-.295 1.127-.828l.309-.959h3.023l.31.97c.165.527.57.817 1.139.817.299 0 .556-.097.763-.29a1.02 1.02 0 00.314-.996z" fill="#FC8507"/><g clip-path="url(#clip0)"><path d="M20.19 2.56S15.227-.563 9.367 1.712c0 0-3.937-.823-7.724 5.56 0 0-.565 2.48-.275 3.297 0 0-1.906 2.537.58 5.16 0 0 .189 1.096 1.893 2.638l3.014 3.883 2.938-.296-.51-.73s-.704-4.01-1.335-4.868c0 0 .114-.776.933.088l.825 1.767L21.232 5.452 20.191 2.56z" fill="#CC2E12"/><path d="M4.4 13.945a32.208 32.208 0 01-2.856-6.212c-.105.543-.26 1.463-.26 2.155a29.859 29.859 0 003.117 4.057z" fill="#9C2510"/><path d="M5.755 5.941a.72.72 0 00-.238.495c.076-.166.159-.332.238-.495z" fill="#D03F3E"/><path d="M7.947 16.347c.016-.074.157-.71.921.089-.045-.394-.147-.793-.204-1.184-.165-1.097.041-2.218.242-3.312.385-2.093.794-4.236 1.86-6.078-.765.653-1.228 1.587-1.656 2.495-.848 1.796-1.662 3.712-1.476 5.685-.716-.764-.965-1.84-1.184-2.864l-.869-4.03c-.05-.23-.092-.488-.063-.713-.368.765-.67 1.561-.696 2.402-.034 1.118.428 2.181.906 3.193a73.795 73.795 0 002.219 4.317z" fill="#9C2510"/><path d="M26.303 4.65c.047.055.08.082.119.143.159.248.112.468.04.754l-.133.512c-.015.109-.05.164-.093.265-.077.179-.144.267-.249.431-.166.261-.28.394-.473.636-.282.355-.457.54-.764.874-.424.463-.627.774-1.123 1.149-.492.38-.949.886-1.553 1.456-.386.364-.608.561-.985.933-.362.356-.562.56-.91.928a31.1 31.1 0 00-.838.915c-.303.344-.47.54-.763.892-.274.33-.425.518-.69.857a31.5 31.5 0 00-.615.811c-.216.293-.335.458-.543.756a29.853 29.853 0 00-.867 1.301c-.129.204-.324.525-.324.525s-.156.258-.253.426l-.18.318c-.042.077-.067.12-.108.198l-.036.069c-.216.41-.276.687-.581 1.037-.225.257-.368.4-.667.565-.229.126-.372.18-.629.23-.18.035-.192.063-.375.053-.071-.004 0 0-.275-.035-.34-.044-1.905-1.511-2.69-2.813a6.636 6.636 0 01-.289-.517c-.09-.182-.21-.468-.216-.473-.122-.374.314-.763.416-1.041.02-.366.174-.475.173-.61.1-.374.348-.813.498-.986.347-.451.417-.612.55-.987.143-.413.323-.556.537-.908.178-.293.28-.457.462-.747.125-.199.312-.48.312-.48s.086-.128.133-.214c.134-.245.118-.421.234-.675.143-.311.345-.502.46-.748.19-.41.604-.774.604-.774s.402-.461.671-.746c.252-.267.398-.412.66-.669a23.123 23.123 0 01.969-.902l.15-.131s.099-.166.164-.271c.154-.248.242-.386.412-.623.2-.276.301-.442.541-.683a3.69 3.69 0 01.55-.46c.28-.199.468-.259.756-.444.269-.173.416-.28.669-.466l.015-.011c.118-.086.196-.12.298-.224.27-.27.211-.56.377-.904.094-.195.11-.33.254-.49.123-.137.223-.183.383-.272.276-.152.459-.186.767-.25.715-.147 1.197.087 1.865.107.788-.127 2.175 1.221 3.183 2.412zM5.98 24.193c.285 1.445 2.022 2.417 3.468 2.132a2.668 2.668 0 00-1.035-5.235c-1.445.285-2.72 1.657-2.433 3.103z" fill="#F2F2F2"/><path d="M8.048 26.232c.457.145.943.176 1.4.088a2.655 2.655 0 002.097-3.133 2.663 2.663 0 00-3.132-2.098c-.07.017-.134.028-.197.052a2.656 2.656 0 011.752 2.004 2.652 2.652 0 01-1.92 3.087z" fill="#D9D9D9"/><path d="M8.164 21.265a.176.176 0 01-.069-.083l.014-.004.055.087z" fill="#CBD6E0"/></g><defs><clipPath id="clip0"><path fill="#fff" d="M0 0h27v27H0z"/></clipPath></defs></svg>