<?xml version="1.0" encoding="utf-8"?>
<!-- Generator: Adobe Illustrator 23.0.1, SVG Export Plug-In . SVG Version: 6.00 Build 0)  -->
<svg version="1.1" id="Layer_1" xmlns="http://www.w3.org/2000/svg" xmlns:xlink="http://www.w3.org/1999/xlink" x="0px" y="0px"
	 viewBox="0 0 33.6 32.6" style="enable-background:new 0 0 33.6 32.6;" xml:space="preserve">
<style type="text/css">
	.st0{fill:#010101;stroke:#010101;stroke-width:1.2;stroke-miterlimit:10;}
	.st1{fill:#010101;stroke:#010101;stroke-width:1.2;stroke-linecap:round;stroke-linejoin:round;stroke-miterlimit:10;}
</style>
<path class="st0" d="M31.7,7.7c-0.1,0-0.3,0-0.5,0c-8,0-15.9,0-23.8,0c-0.1,0-0.3,0-0.4,0c0-0.1-0.1-0.2-0.1-0.3
	C6.4,5.5,5.9,3.6,5.3,1.6C5.2,1.1,5,1,4.4,1C3.5,1,2.6,1,1.6,1C1.1,1,0.8,1.2,0.8,1.7c0,0.4,0.3,0.7,0.8,0.7c0.7,0,1.5,0,2.3,0
	c0.1,0,0.2,0,0.3,0c2.1,7.7,4.2,15.3,6.3,22.9C8.1,26,7.5,28.1,8,29.5c0.6,1.6,2.3,2.5,3.9,2c0.8-0.3,1.5-0.7,1.9-1.5
	c0.7-1.1,0.5-2.3-0.1-3.3c2.7,0,5.4,0,8,0c-0.5,1.1-0.6,1.7-0.4,2.5c0.3,1.6,1.9,2.7,3.5,2.5c1.7-0.3,2.9-1.8,2.7-3.4
	s-1.5-2.8-3.2-2.8c-4,0-7.9,0-11.9,0c-0.7,0-0.7,0-0.8-0.6c-0.1-0.4-0.2-0.7-0.3-1.1c0.2,0,0.3,0,0.4,0c4.8,0,9.6,0,14.4,0
	c0.9,0,1.5-0.4,1.9-1.3c0.9-2.6,1.8-5.1,2.6-7.7c0.6-1.7,1.2-3.5,1.8-5.2C32.8,8.5,32.4,7.9,31.7,7.7L31.7,7.7z M24.4,26.7
	c1,0,1.8,0.8,1.8,1.7c0,1-0.8,1.8-1.8,1.8s-1.7-0.8-1.7-1.8C22.6,27.5,23.4,26.7,24.4,26.7z M12.8,28.5c0,1-0.8,1.8-1.8,1.8
	s-1.7-0.8-1.7-1.7c0-1,0.8-1.8,1.7-1.8C11.9,26.7,12.8,27.5,12.8,28.5z M30.1,12.1c-1.1,3.2-2.2,6.4-3.3,9.5
	c-0.1,0.4-0.2,0.5-0.6,0.5c-4.9,0-9.9,0-14.8,0c-0.1,0-0.2,0-0.3,0c-1.2-4.4-2.4-8.7-3.6-13.1c7.9,0,15.8,0,23.7,0
	C30.8,10.1,30.4,11.1,30.1,12.1z"/>
<path class="st1" d="M22.6,21.1c0.3-0.1,0.4-0.3,0.4-0.5c0.3-2,0.7-4,1.1-6c0.2-1.3,0.5-2.6,0.7-4c0.1-0.3-0.1-0.5-0.3-0.5
	c-0.3-0.1-0.5,0.1-0.5,0.4c0,0.1,0,0.1-0.1,0.2c-0.4,2.5-0.9,4.9-1.3,7.4c-0.1,0.9-0.3,1.7-0.5,2.6C22.1,21,22.3,21.2,22.6,21.1
	L22.6,21.1z"/>
<path class="st0" d="M17.9,20.8c0,0.2,0.1,0.3,0.4,0.4c0.2,0,0.4-0.1,0.5-0.3c0.1-0.1,0.1-0.2,0.1-0.3c0-3.2,0-6.6,0-9.8
	c0-0.1,0-0.3-0.1-0.3c-0.1-0.2-0.3-0.3-0.5-0.3c-0.2,0-0.3,0.1-0.4,0.4c0,0.1,0,0.2,0,0.3c0,1.7,0,3.2,0,4.9s0,3.2,0,4.9
	C17.9,20.6,17.9,20.7,17.9,20.8L17.9,20.8z"/>
</svg>
